<svg width="55" height="55" viewBox="0 0 55 55" fill="none" xmlns="http://www.w3.org/2000/svg">
<path fill-rule="evenodd" clip-rule="evenodd" d="M29.1862 43.5C29.1862 42.1174 29.455 40.7524 29.973 39.4843C30.4908 38.2166 31.2458 37.0748 32.1876 36.1198C33.1292 35.165 34.2399 34.4146 35.4534 33.905C36.6667 33.3954 37.9631 33.1346 39.2695 33.1346L39.2695 28.6923C37.7621 28.6923 36.2662 29.0649 34.8662 29.7929C33.4661 30.5209 32.1845 31.5929 31.0981 32.9568C30.0113 34.3211 29.1403 35.9523 28.5428 37.7632C27.945 39.5748 27.6349 41.5249 27.6349 43.5L29.1862 43.5Z" fill="black"/>
<path fill-rule="evenodd" clip-rule="evenodd" d="M26.0833 43.5C26.0833 42.1174 25.8146 40.7524 25.2965 39.4843C24.7787 38.2166 24.0238 37.0748 23.0819 36.1198C22.1403 35.165 21.0296 34.4146 19.8162 33.905C18.6029 33.3954 17.3065 33.1346 16 33.1346L16 28.6923C17.5075 28.6923 19.0033 29.0649 20.4033 29.7929C21.8034 30.5209 23.085 31.5929 24.1714 32.9568C25.2582 34.3211 26.1293 35.9523 26.7268 37.7632C27.3245 39.5748 27.6346 41.5249 27.6346 43.5L26.0833 43.5Z" fill="black"/>
<path d="M27.6348 43.5L27.6348 11.5" stroke="black" stroke-width="3.17308"/>
<rect x="0.5" y="0.5" width="54" height="54" rx="27" stroke="black"/>
</svg>
