<svg width="42" height="42" viewBox="0 0 42 42" fill="none" xmlns="http://www.w3.org/2000/svg">
<path fill-rule="evenodd" clip-rule="evenodd" d="M33.2183 19.7122C32.1625 19.7122 31.1201 19.507 30.1517 19.1114C29.1837 18.7159 28.3117 18.1395 27.5824 17.4202C26.8534 16.7012 26.2804 15.853 25.8912 14.9264C25.502 13.9998 25.3029 13.0099 25.3029 12.0122L21.9106 12.0122C21.9106 13.1634 22.1951 14.3056 22.751 15.3747C23.307 16.4439 24.1255 17.4226 25.1671 18.2522C26.2089 19.0821 27.4546 19.7473 28.8375 20.2036C30.2209 20.66 31.71 20.8968 33.2183 20.8968L33.2183 19.7122Z" fill="black"/>
<path fill-rule="evenodd" clip-rule="evenodd" d="M33.2183 22.0817C32.1625 22.0817 31.1201 22.287 30.1517 22.6826C29.1837 23.078 28.3117 23.6545 27.5824 24.3737C26.8534 25.0928 26.2804 25.941 25.8912 26.8676C25.502 27.7941 25.3029 28.7841 25.3029 29.7817L21.9106 29.7817C21.9106 28.6306 22.1951 27.4883 22.751 26.4192C23.307 25.3501 24.1255 24.3714 25.1671 23.5417C26.2089 22.7118 27.4546 22.0467 28.8375 21.5904C30.2209 21.1339 31.71 20.8971 33.2183 20.8971L33.2183 22.0817Z" fill="black"/>
<path d="M33.2183 20.897L8.7819 20.897" stroke="black" stroke-width="2.42308"/>
<rect x="0.381818" y="41.6182" width="41.2364" height="41.2364" rx="20.6182" transform="rotate(-90 0.381818 41.6182)" stroke="black" stroke-width="0.763636"/>
</svg>
