<svg width="23" height="31" viewBox="0 0 23 31" fill="none" xmlns="http://www.w3.org/2000/svg">
<path fill-rule="evenodd" clip-rule="evenodd" d="M13.1824 30.226C13.1824 28.931 13.4341 27.6524 13.9193 26.4646C14.4043 25.2773 15.1114 24.2078 15.9936 23.3133C16.8755 22.4191 17.9159 21.7162 19.0524 21.2389C20.1889 20.7616 21.4031 20.5173 22.6268 20.5173L22.6268 16.3565C21.2149 16.3565 19.8138 16.7054 18.5025 17.3873C17.1911 18.0692 15.9907 19.0732 14.9731 20.3508C13.9552 21.6286 13.1393 23.1565 12.5797 24.8527C12.0198 26.5495 11.7294 28.376 11.7294 30.226L13.1824 30.226Z" fill="black"/>
<path fill-rule="evenodd" clip-rule="evenodd" d="M10.2765 30.226C10.2765 28.931 10.0248 27.6524 9.53955 26.4646C9.05452 25.2773 8.34743 24.2078 7.46525 23.3133C6.58333 22.4191 5.54296 21.7162 4.40642 21.2389C3.26998 20.7616 2.05574 20.5173 0.832032 20.5173L0.832032 16.3565C2.244 16.3565 3.64505 16.7054 4.95633 17.3873C6.26772 18.0692 7.46814 19.0732 8.48575 20.3508C9.50365 21.6286 10.3195 23.1565 10.8792 24.8527C11.439 26.5495 11.7295 28.376 11.7295 30.226L10.2765 30.226Z" fill="black"/>
<path d="M11.7294 30.226L11.7294 0.253435" stroke="black" stroke-width="2.97203"/>
</svg>
