<svg width="42" height="42" viewBox="0 0 42 42" fill="none" xmlns="http://www.w3.org/2000/svg">
<path fill-rule="evenodd" clip-rule="evenodd" d="M8.78174 22.2878C9.83753 22.2878 10.8799 22.493 11.8483 22.8886C12.8163 23.2841 13.6883 23.8605 14.4176 24.5798C15.1466 25.2988 15.7196 26.147 16.1088 27.0736C16.498 28.0002 16.6971 28.9901 16.6971 29.9878L20.0894 29.9878C20.0894 28.8366 19.8049 27.6944 19.249 26.6253C18.693 25.5561 17.8745 24.5774 16.8329 23.7478C15.7911 22.9179 14.5454 22.2527 13.1625 21.7964C11.7791 21.34 10.29 21.1032 8.78174 21.1032L8.78174 22.2878Z" fill="black"/>
<path fill-rule="evenodd" clip-rule="evenodd" d="M8.78174 19.9183C9.83753 19.9183 10.8799 19.713 11.8483 19.3174C12.8163 18.922 13.6883 18.3455 14.4176 17.6263C15.1466 16.9072 15.7196 16.059 16.1088 15.1324C16.498 14.2059 16.6971 13.2159 16.6971 12.2183L20.0894 12.2183C20.0894 13.3694 19.8049 14.5117 19.249 15.5808C18.693 16.6499 17.8745 17.6286 16.8329 18.4583C15.7911 19.2882 14.5454 19.9533 13.1625 20.4096C11.7791 20.8661 10.29 21.1029 8.78174 21.1029L8.78174 19.9183Z" fill="black"/>
<path d="M8.78174 21.103L33.2181 21.103" stroke="black" stroke-width="2.42308"/>
<rect x="41.6182" y="0.381818" width="41.2364" height="41.2364" rx="20.6182" transform="rotate(90 41.6182 0.381818)" stroke="black" stroke-width="0.763636"/>
</svg>
