<svg width="42" height="42" viewBox="0 0 42 42" fill="none" xmlns="http://www.w3.org/2000/svg">
<path fill-rule="evenodd" clip-rule="evenodd" d="M33.2183 19.7121C32.1625 19.7121 31.1201 19.5068 30.1517 19.1113C29.1837 18.7158 28.3117 18.1393 27.5824 17.4201C26.8534 16.7011 26.2804 15.8529 25.8912 14.9263C25.502 13.9997 25.3029 13.0098 25.3029 12.0121L21.9106 12.0121C21.9106 13.1633 22.1951 14.3055 22.751 15.3746C23.307 16.4438 24.1255 17.4225 25.1671 18.2521C26.2089 19.082 27.4546 19.7472 28.8375 20.2034C30.2209 20.6599 31.71 20.8967 33.2183 20.8967L33.2183 19.7121Z" fill="black"/>
<path fill-rule="evenodd" clip-rule="evenodd" d="M33.2183 22.0816C32.1625 22.0816 31.1201 22.2869 30.1517 22.6824C29.1837 23.0779 28.3117 23.6544 27.5824 24.3736C26.8534 25.0926 26.2804 25.9408 25.8912 26.8674C25.502 27.794 25.3029 28.7839 25.3029 29.7816L21.9106 29.7816C21.9106 28.6305 22.1951 27.4882 22.751 26.4191C23.307 25.3499 24.1255 24.3712 25.1671 23.5416C26.2089 22.7117 27.4546 22.0465 28.8375 21.5903C30.2209 21.1338 31.71 20.897 33.2183 20.897L33.2183 22.0816Z" fill="black"/>
<path d="M33.2183 20.8969L8.7819 20.8969" stroke="black" stroke-width="2.42308"/>
<rect x="0.381818" y="41.6182" width="41.2364" height="41.2364" rx="20.6182" transform="rotate(-90 0.381818 41.6182)" stroke="black" stroke-width="0.763636"/>
</svg>
