<svg width="22" height="36" viewBox="0 0 22 36" fill="none" xmlns="http://www.w3.org/2000/svg">
<path fill-rule="evenodd" clip-rule="evenodd" d="M12.072 32C12.072 30.7902 12.3011 29.5958 12.7426 28.4862C13.184 27.377 13.8275 26.3779 14.6302 25.5422C15.4328 24.7068 16.3795 24.0503 17.4138 23.6043C18.4479 23.1584 19.5529 22.9302 20.6664 22.9302L20.6664 19.0432C19.3816 19.0432 18.1066 19.3692 16.9134 20.0062C15.72 20.6433 14.6276 21.5812 13.7016 22.7747C12.7753 23.9684 12.0329 25.3957 11.5236 26.9803C11.0141 28.5654 10.7498 30.2717 10.7498 32L12.072 32Z" fill="white"/>
<path fill-rule="evenodd" clip-rule="evenodd" d="M9.42773 32C9.42773 30.7902 9.19865 29.5958 8.75711 28.4862C8.31574 27.377 7.67229 26.3779 6.86951 25.5423C6.06696 24.7069 5.12024 24.0503 4.08599 23.6044C3.05183 23.1585 1.94688 22.9303 0.833313 22.9303L0.833314 19.0433C2.1182 19.0433 3.39314 19.3692 4.5864 20.0062C5.77976 20.6433 6.87214 21.5813 7.79816 22.7747C8.72444 23.9685 9.46688 25.3958 9.97616 26.9803C10.4856 28.5655 10.7499 30.2718 10.7499 32L9.42773 32Z" fill="white"/>
<path d="M10.7499 32L10.7499 3.99994" stroke="white" stroke-width="2.5451"/>
</svg>
