<svg width="18" height="25" viewBox="0 0 18 25" fill="none" xmlns="http://www.w3.org/2000/svg">
<path fill-rule="evenodd" clip-rule="evenodd" d="M9.65707 24.2259C9.65707 23.189 9.85342 22.1652 10.2319 21.2141C10.6102 20.2634 11.1617 19.407 11.8498 18.6907C12.5377 17.9747 13.3492 17.4119 14.2357 17.0297C15.1221 16.6475 16.0692 16.4519 17.0237 16.4519L17.0237 13.1201C15.9224 13.1201 14.8296 13.3996 13.8068 13.9456C12.7839 14.4916 11.8476 15.2956 11.0538 16.3185C10.2599 17.3418 9.62351 18.5651 9.18699 19.9233C8.7503 21.282 8.52374 22.7446 8.52374 24.2259L9.65707 24.2259Z" fill="black"/>
<path fill-rule="evenodd" clip-rule="evenodd" d="M7.39054 24.226C7.39054 23.189 7.19418 22.1652 6.81572 21.2141C6.4374 20.2634 5.88587 19.407 5.19778 18.6908C4.50988 17.9747 3.6984 17.4119 2.8119 17.0297C1.92548 16.6475 0.978379 16.4519 0.0238957 16.4519L0.0238959 13.1202C1.12522 13.1202 2.21804 13.3996 3.24083 13.9456C4.26371 14.4916 5.20003 15.2956 5.99376 16.3186C6.78771 17.3418 7.4241 18.5652 7.86062 19.9234C8.29731 21.2821 8.52387 22.7446 8.52387 24.226L7.39054 24.226Z" fill="black"/>
<path d="M8.5238 24.2259L8.5238 0.225913" stroke="black" stroke-width="2.18151"/>
</svg>
