<svg width="21" height="28" viewBox="0 0 21 28" fill="none" xmlns="http://www.w3.org/2000/svg">
<path fill-rule="evenodd" clip-rule="evenodd" d="M12.072 28C12.072 26.7902 12.3011 25.5958 12.7426 24.4862C13.184 23.377 13.8275 22.3779 14.6302 21.5422C15.4328 20.7068 16.3795 20.0503 17.4138 19.6043C18.4479 19.1584 19.5529 18.9302 20.6664 18.9302L20.6664 15.0432C19.3816 15.0432 18.1066 15.3692 16.9134 16.0062C15.72 16.6433 14.6276 17.5812 13.7016 18.7747C12.7753 19.9684 12.0329 21.3957 11.5236 22.9803C11.0141 24.5654 10.7498 26.2717 10.7498 28L12.072 28Z" fill="black"/>
<path fill-rule="evenodd" clip-rule="evenodd" d="M9.42773 28C9.42773 26.7902 9.19865 25.5958 8.75711 24.4862C8.31574 23.377 7.67229 22.3779 6.86951 21.5423C6.06696 20.7069 5.12024 20.0503 4.08599 19.6044C3.05183 19.1585 1.94688 18.9303 0.833313 18.9303L0.833314 15.0433C2.1182 15.0433 3.39314 15.3692 4.5864 16.0062C5.77976 16.6433 6.87214 17.5813 7.79816 18.7747C8.72444 19.9685 9.46688 21.3958 9.97616 22.9803C10.4856 24.5655 10.7499 26.2718 10.7499 28L9.42773 28Z" fill="black"/>
<path d="M10.7499 28L10.7499 -5.80549e-05" stroke="black" stroke-width="2.5451"/>
</svg>
