<svg width="35" height="25" viewBox="0 0 35 25" fill="none" xmlns="http://www.w3.org/2000/svg">
<path fill-rule="evenodd" clip-rule="evenodd" d="M34.218 10.4555C32.7844 10.4555 31.369 10.1768 30.0541 9.63967C28.7396 9.10272 27.5557 8.31993 26.5654 7.34331C25.5754 6.36698 24.7973 5.21524 24.2689 3.95703C23.7405 2.69893 23.4701 1.3547 23.4701 1.40943e-06L18.8638 2.01347e-06C18.8638 1.56312 19.2501 3.11415 20.0049 4.56581C20.7599 6.01759 21.8714 7.34651 23.2857 8.47305C24.7004 9.59992 26.3917 10.5031 28.2695 11.1227C30.148 11.7425 32.17 12.064 34.218 12.064L34.218 10.4555Z" fill="black"/>
<path fill-rule="evenodd" clip-rule="evenodd" d="M34.218 13.6727C32.7844 13.6727 31.369 13.9514 30.0541 14.4885C28.7396 15.0255 27.5557 15.8082 26.5654 16.7849C25.5754 17.7612 24.7973 18.9129 24.2689 20.1711C23.7405 21.4292 23.4701 22.7735 23.4701 24.1282L18.8638 24.1282C18.8638 22.5651 19.2501 21.014 20.0049 19.5624C20.7599 18.1106 21.8714 16.7817 23.2857 15.6551C24.7004 14.5283 26.3917 13.625 28.2695 13.0055C30.148 12.3857 32.17 12.0641 34.218 12.0641L34.218 13.6727Z" fill="black"/>
<path d="M34.218 12.0642L-5.36442e-07 12.0642" stroke="black" stroke-width="3.29019"/>
</svg>
